<svg width="36" height="32" viewBox="0 0 36 32" fill="none" xmlns="http://www.w3.org/2000/svg">
<rect width="36" height="32" fill="#1981DC"/>
<rect width="36" height="32" rx="4" fill="white"/>
<g clip-path="url(#clip0_423_5434)">
<path fill-rule="evenodd" clip-rule="evenodd" d="M20.8153 18.0203C20.557 18.1542 20.3127 18.3161 20.0871 18.5041L19.1269 17.3516C19.4363 17.0938 19.7713 16.872 20.1249 16.6887L20.8153 18.0203ZM19.4803 19.1327C19.3916 19.2472 19.3083 19.3674 19.2309 19.4931L18.9979 19.8717L17.7204 19.0856L17.9534 18.707C18.0591 18.5352 18.1731 18.3707 18.2947 18.2139L19.4803 19.1327ZM22.4945 17.5691C22.2012 17.5827 21.9116 17.6282 21.6307 17.7037L21.2413 16.2551C21.626 16.1517 22.0228 16.0894 22.4251 16.0707L22.4945 17.5691ZM18.5319 20.6289L18.299 21.0075C18.1951 21.1763 18.0852 21.3407 17.9695 21.5004L16.7546 20.6206C16.8483 20.4912 16.9373 20.3581 17.0215 20.2213L17.2545 19.8427L18.5319 20.6289ZM17.2044 22.4053C16.927 22.6874 16.6289 22.9482 16.3124 23.1856L15.4123 21.9857C15.6686 21.7934 15.9102 21.5821 16.1348 21.3536L17.2044 22.4053Z" fill="#1981DC"/>
<path fill-rule="evenodd" clip-rule="evenodd" d="M28 10C28 12.2091 24 18 24 18L23.7989 17.7033L23.3665 17.6235L23.445 17.1681C22.3464 15.4849 20 11.692 20 10C20 7.79086 21.7909 6 24 6C26.2091 6 28 7.79086 28 10ZM24 12C24.9468 12 25.7143 11.1941 25.7143 10.2C25.7143 9.20589 24.9468 8.4 24 8.4C23.0532 8.4 22.2857 9.20589 22.2857 10.2C22.2857 11.1941 23.0532 12 24 12Z" fill="#1981DC"/>
<path fill-rule="evenodd" clip-rule="evenodd" d="M12 26C12 26 8 20.2091 8 18C8 15.7909 9.79086 14 12 14C14.2091 14 16 15.7909 16 18C16 19.0936 15.0197 21.0651 14.0297 22.7772C14.2236 22.691 14.4163 22.603 14.6034 22.5025L15.3138 23.8236C15.1401 23.917 14.9625 24.0041 14.7814 24.0846L14.1622 24.3598L13.7046 23.3302C13.3974 23.8444 13.0998 24.3209 12.8415 24.7248L12.9239 24.9102L12.641 25.036C12.2571 25.6277 12 26 12 26ZM12 20C12.9468 20 13.7143 19.1941 13.7143 18.2C13.7143 17.2059 12.9468 16.4 12 16.4C11.0532 16.4 10.2857 17.2059 10.2857 18.2C10.2857 19.1941 11.0532 20 12 20Z" fill="#1981DC"/>
</g>
<defs>
<clipPath id="clip0_423_5434">
<rect width="20" height="20" fill="white" transform="translate(8 6)"/>
</clipPath>
</defs>
</svg>
