<svg width="42" height="40" viewBox="0 0 42 40" fill="none" xmlns="http://www.w3.org/2000/svg">
<g filter="url(#filter0_d_462_5592)">
<path d="M38 4C38 1.79086 36.2091 0 34 0H4V32H34C36.2091 32 38 30.2091 38 28V4Z" fill="white" shape-rendering="crispEdges"/>
<g clip-path="url(#clip0_462_5592)">
<path fill-rule="evenodd" clip-rule="evenodd" d="M17.1847 18.0203C17.443 18.1542 17.6873 18.3161 17.9129 18.5041L18.8731 17.3516C18.5637 17.0938 18.2287 16.872 17.8751 16.6887L17.1847 18.0203ZM18.5197 19.1327C18.6084 19.2472 18.6917 19.3674 18.7691 19.4931L19.0021 19.8717L20.2796 19.0856L20.0466 18.707C19.9409 18.5352 19.8269 18.3707 19.7053 18.2139L18.5197 19.1327ZM15.5055 17.5691C15.7988 17.5827 16.0884 17.6282 16.3693 17.7037L16.7587 16.2551C16.374 16.1517 15.9772 16.0894 15.5749 16.0707L15.5055 17.5691ZM19.4681 20.6289L19.701 21.0075C19.8049 21.1763 19.9148 21.3407 20.0305 21.5004L21.2454 20.6206C21.1517 20.4912 21.0627 20.3581 20.9785 20.2213L20.7455 19.8427L19.4681 20.6289ZM20.7956 22.4053C21.073 22.6874 21.3711 22.9482 21.6876 23.1856L22.5877 21.9857C22.3314 21.7934 22.0898 21.5821 21.8652 21.3536L20.7956 22.4053Z" fill="#1981DC"/>
<path fill-rule="evenodd" clip-rule="evenodd" d="M10 10C10 12.2091 14 18 14 18L14.2011 17.7033L14.6335 17.6235L14.555 17.1681C15.6536 15.4849 18 11.692 18 10C18 7.79086 16.2091 6 14 6C11.7909 6 10 7.79086 10 10ZM14 12C13.0532 12 12.2857 11.1941 12.2857 10.2C12.2857 9.20589 13.0532 8.4 14 8.4C14.9468 8.4 15.7143 9.20589 15.7143 10.2C15.7143 11.1941 14.9468 12 14 12Z" fill="#1981DC"/>
<path fill-rule="evenodd" clip-rule="evenodd" d="M26 26C26 26 30 20.2091 30 18C30 15.7909 28.2091 14 26 14C23.7909 14 22 15.7909 22 18C22 19.0936 22.9803 21.0651 23.9703 22.7772C23.7764 22.691 23.5837 22.603 23.3966 22.5025L22.6862 23.8236C22.8599 23.917 23.0375 24.0041 23.2186 24.0846L23.8378 24.3598L24.2954 23.3302C24.6026 23.8444 24.9002 24.3209 25.1585 24.7248L25.0761 24.9102L25.359 25.036C25.7429 25.6277 26 26 26 26ZM26 20C25.0532 20 24.2857 19.1941 24.2857 18.2C24.2857 17.2059 25.0532 16.4 26 16.4C26.9468 16.4 27.7143 17.2059 27.7143 18.2C27.7143 19.1941 26.9468 20 26 20Z" fill="#1981DC"/>
</g>
</g>
<defs>
<filter id="filter0_d_462_5592" x="0" y="0" width="42" height="40" filterUnits="userSpaceOnUse" color-interpolation-filters="sRGB">
<feFlood flood-opacity="0" result="BackgroundImageFix"/>
<feColorMatrix in="SourceAlpha" type="matrix" values="0 0 0 0 0 0 0 0 0 0 0 0 0 0 0 0 0 0 127 0" result="hardAlpha"/>
<feOffset dy="4"/>
<feGaussianBlur stdDeviation="2"/>
<feComposite in2="hardAlpha" operator="out"/>
<feColorMatrix type="matrix" values="0 0 0 0 0 0 0 0 0 0 0 0 0 0 0 0 0 0 0.25 0"/>
<feBlend mode="normal" in2="BackgroundImageFix" result="effect1_dropShadow_462_5592"/>
<feBlend mode="normal" in="SourceGraphic" in2="effect1_dropShadow_462_5592" result="shape"/>
</filter>
<clipPath id="clip0_462_5592">
<rect width="20" height="20" fill="white" transform="matrix(-1 0 0 1 30 6)"/>
</clipPath>
</defs>
</svg>
